<?xml version="1.0" encoding="UTF-8"?>
<svg width="218px" height="126px" viewBox="0 0 218 126" version="1.1" xmlns="http://www.w3.org/2000/svg" xmlns:xlink="http://www.w3.org/1999/xlink">
    <!-- Generator: Sketch 53.1 (72631) - https://sketchapp.com -->
    <title>logo_vertical_white100</title>
    <desc>Created with Sketch.</desc>
    <defs>
        <filter x="-5.7%" y="-10.2%" width="111.4%" height="120.3%" filterUnits="objectBoundingBox" id="filter-1">
            <feOffset dx="0" dy="2" in="SourceAlpha" result="shadowOffsetOuter1"></feOffset>
            <feGaussianBlur stdDeviation="2" in="shadowOffsetOuter1" result="shadowBlurOuter1"></feGaussianBlur>
            <feColorMatrix values="0 0 0 0 0   0 0 0 0 0   0 0 0 0 0  0 0 0 0.5 0" type="matrix" in="shadowBlurOuter1" result="shadowMatrixOuter1"></feColorMatrix>
            <feMerge>
                <feMergeNode in="shadowMatrixOuter1"></feMergeNode>
                <feMergeNode in="SourceGraphic"></feMergeNode>
            </feMerge>
        </filter>
    </defs>
    <g id="Page-1" stroke="none" stroke-width="1" fill="none" fill-rule="evenodd">
        <g id="Desktop" transform="translate(-611.000000, -37.000000)" fill="#FFFFFF" fill-rule="nonzero">
            <g id="HEADER">
                <g id="logo_vertical_white100" filter="url(#filter-1)" transform="translate(615.000000, 39.000000)">
                    <g id="Logo_Black" transform="translate(65.000000, 0.000000)">
                        <g id="Circle">
                            <path d="M77.95625,40.5062791 C77.78125,56.4927907 67.875,71.0476744 52.83125,76.5544186 C37.6684107,82.0861093 20.6812149,77.4471521 10.392266,64.9649465 C0.103317026,52.4827409 -1.2670253,34.8509524 6.96875,20.9155814 C15.3012445,7.02446046 31.3707659,-0.174161536 47.225,2.88209302 C65,6.44232558 77.7625,22.4037209 77.95625,40.5062791 C77.95625,40.9397584 78.3060275,41.2911628 78.7375,41.2911628 C79.1689725,41.2911628 79.51875,40.9397584 79.51875,40.5062791 C79.3375,23.9483721 69.15,8.90372093 53.63125,3.08302326 C37.8385721,-2.80970394 20.0636741,1.94086168 9.27299927,14.9383251 C-1.51767552,27.9357885 -2.9794738,46.355994 5.625,60.9069767 C14.2420809,75.271013 30.8122434,82.773146 47.23125,79.744186 C65.9,76.227907 79.31875,59.4439535 79.525,40.5376744 C79.5336294,40.1024612 79.1894484,39.7426231 78.75625,39.7339535 C78.3230516,39.7252839 77.9648794,40.0710658 77.95625,40.5062791 Z" id="Path"></path>
                        </g>
                        <path d="M41.31875,39.872093 L15.03125,25.0095349 L15.03125,57.3404651 L15.95625,57.3404651 L15.95625,30.3404651 L63.7,57.415814 L63.7,25.0095349 L41.31875,39.872093 Z M62.56875,55.3186047 L16.09375,29.1097674 L16.09375,26.9309302 L62.575,53.372093 L62.56875,55.3186047 Z M62.8,52.2355814 L41.9875,40.3053488 L62.8,26.6106977 L62.8,52.2355814 Z" id="Logo_Compound_Path" stroke="#FFFFFF"></path>
                    </g>
                    <path d="M14.1222511,96.0031717 L15.6938393,96.0031717 C15.77753,95.9901789 15.8624532,96.0175652 15.9223547,96.0768643 C15.9822563,96.1361633 16.0099209,96.2202322 15.9967961,96.3030811 L15.9967961,116.696919 C16.0099209,116.779768 15.9822563,116.863837 15.9223547,116.923136 C15.8624532,116.982435 15.77753,117.009821 15.6938393,116.996828 L14.1538091,116.996828 C14.0701184,117.009821 13.9851953,116.982435 13.9252937,116.923136 C13.8653921,116.863837 13.8377275,116.779768 13.8508524,116.696919 L13.8508524,100.001963 C13.85436,99.9520414 13.8301843,99.9041766 13.7877364,99.8770012 C13.7498668,99.8770012 13.7183088,99.8770012 13.699374,99.9394823 L8.75739189,107.437217 C8.68048471,107.561826 8.54508637,107.639426 8.39763074,107.643405 L7.60868086,107.643405 C7.46564255,107.645378 7.33001501,107.580561 7.24260811,107.468457 L2.30693761,100.026956 C2.30693761,99.9728056 2.27537962,99.9540612 2.21226362,99.9707229 C2.17092342,99.995374 2.14853865,100.042155 2.15545923,100.089437 L2.15545923,116.671926 C2.16858408,116.754775 2.14091945,116.838844 2.08101789,116.898143 C2.02111633,116.957442 1.93619317,116.984829 1.85250248,116.971836 L0.306160696,116.971836 C0.222470005,116.984829 0.137546838,116.957442 0.0776452801,116.898143 C0.0177437217,116.838844 -0.00992090804,116.754775 0.00320393949,116.671926 L0.00320393949,96.2780886 C-0.00142763365,96.1993354 0.0299745795,96.1226976 0.0887170567,96.0693919 C0.147459534,96.0160863 0.227309407,95.9917688 0.306160696,96.0031717 L1.89668367,96.0031717 C2.04040079,95.9969527 2.17690887,96.0657056 2.25644482,96.184367 L7.93688401,104.731784 C7.98818972,104.773684 8.06230307,104.773684 8.11360878,104.731784 L13.7498668,96.2156075 C13.8293568,96.0866446 13.9696803,96.0065936 14.1222511,96.0031717 Z" id="Path"></path>
                    <path d="M34.6854021,97.8656642 L23.3200913,97.8656642 C23.2865383,97.8615401 23.2529076,97.8727182 23.2289928,97.8959431 C23.205078,97.919168 23.1935679,97.9518286 23.1978145,97.9844137 L23.1978145,105.40313 C23.1935679,105.435715 23.205078,105.468376 23.2289928,105.491601 C23.2529076,105.514825 23.2865383,105.526003 23.3200913,105.521879 L31.287393,105.521879 C31.3727282,105.508883 31.4593201,105.536277 31.5203988,105.595594 C31.5814774,105.654911 31.6096856,105.739005 31.5963029,105.821878 L31.5963029,107.071872 C31.6096856,107.154746 31.5814774,107.23884 31.5203988,107.298157 C31.4593201,107.357473 31.3727282,107.384868 31.287393,107.371871 L23.3200913,107.371871 C23.2364282,107.371871 23.1978145,107.415621 23.1978145,107.49687 L23.1978145,115.028086 C23.1935679,115.060671 23.205078,115.093332 23.2289928,115.116557 C23.2529076,115.139782 23.2865383,115.15096 23.3200913,115.146836 L34.6854021,115.146836 C34.7707373,115.133839 34.8573292,115.161234 34.9184079,115.22055 C34.9794865,115.279867 35.0076948,115.363961 34.994312,115.446834 L34.994312,116.696829 C35.0076948,116.779702 34.9794865,116.863796 34.9184079,116.923113 C34.8573292,116.98243 34.7707373,117.009824 34.6854021,116.996827 L21.3121768,116.996827 C21.2268416,117.009824 21.1402497,116.98243 21.079171,116.923113 C21.0180924,116.863796 20.9898841,116.779702 21.0032669,116.696829 L21.0032669,96.3031713 C20.9898841,96.2202978 21.0180924,96.1362038 21.079171,96.0768871 C21.1402497,96.0175705 21.2268416,95.990176 21.3121768,96.0031727 L34.6854021,96.0031727 C34.7707373,95.990176 34.8573292,96.0175705 34.9184079,96.0768871 C34.9794865,96.1362038 35.0076948,96.2202978 34.994312,96.3031713 L34.994312,97.5531656 C35.0125068,97.6379627 34.9864559,97.7260178 34.924688,97.7885033 C34.86292,97.8509888 34.7733876,97.8798597 34.6854021,97.8656642 L34.6854021,97.8656642 Z" id="Path"></path>
                    <path d="M42.3575672,117.114307 C41.3263991,116.586032 40.4659212,115.760564 39.8804335,114.737957 C39.2836236,113.666192 38.9797132,112.447555 39.001051,111.211761 L39.001051,102.747614 C38.9797132,101.51182 39.2836236,100.293183 39.8804335,99.2214179 C40.4659212,98.1988116 41.3263991,97.373343 42.3575672,96.8450685 C43.491434,96.2632549 44.7452211,95.9739048 46.0113394,96.0018478 C47.2719107,95.9757596 48.5203072,96.2604655 49.6527259,96.8322924 C50.6809737,97.334995 51.5426357,98.139379 52.1298596,99.1447615 C52.7144937,100.160559 53.0146113,101.323686 52.9968563,102.504868 L52.9968563,102.900927 C53.0097342,102.985631 52.9825902,103.071582 52.9238158,103.132209 C52.8650414,103.192836 52.7817162,103.220836 52.6996003,103.207552 L51.1575846,103.207552 C51.0754687,103.220836 50.9921435,103.192836 50.9333691,103.132209 C50.8745947,103.071582 50.8474507,102.985631 50.8603285,102.900927 L50.8603285,102.530421 C50.9044028,101.272093 50.4216169,100.05501 49.535062,99.1894777 C48.5670573,98.3057111 47.302519,97.8472234 46.0113394,97.9118705 C44.7098826,97.8479623 43.4373658,98.3215196 42.475231,99.2278059 C41.581188,100.126113 41.0955614,101.37149 41.1375788,102.658181 L41.1375788,111.243702 C41.0889294,112.549164 41.5875977,113.813019 42.5061952,114.712405 C43.4868898,115.633866 44.7785354,116.122321 46.1042319,116.073057 C47.3681804,116.138997 48.6081083,115.699694 49.5660262,114.846554 C50.4396752,114.000859 50.9123125,112.804182 50.8603285,111.569491 L50.8603285,108.77792 C50.8644149,108.744615 50.8533391,108.711233 50.8303265,108.687495 C50.8073139,108.663757 50.7749519,108.652332 50.7426647,108.656547 L46.3705237,108.656547 C46.2884079,108.669831 46.2050827,108.641831 46.1463083,108.581204 C46.0875339,108.520577 46.0603898,108.434626 46.0732677,108.349921 L46.0732677,107.072314 C46.0603898,106.98761 46.0875339,106.901658 46.1463083,106.841031 C46.2050827,106.780404 46.2884079,106.752405 46.3705237,106.765688 L52.674829,106.765688 C52.7569449,106.752405 52.84027,106.780404 52.8990444,106.841031 C52.9578188,106.901658 52.9849629,106.98761 52.972085,107.072314 L52.972085,111.026508 C52.972085,113.215475 52.3528016,114.918952 51.1142348,116.136937 C49.7181379,117.427009 47.8829948,118.09323 46.0113394,117.989468 C44.7426544,118.007514 43.4887313,117.707171 42.3575672,117.114307 L42.3575672,117.114307 Z" id="Path"></path>
                    <path d="M69.7638571,116.754609 L68.5712475,112.973809 C68.5568713,112.92943 68.5179837,112.897641 68.4718634,112.892569 L59.5397148,112.892569 C59.483364,112.889973 59.4323486,112.925901 59.4154846,112.980058 L58.2228751,116.760858 C58.1762547,116.914839 58.0280277,117.014258 57.8688191,116.99833 L56.2600385,116.99833 C56.0364243,116.99833 55.9618862,116.892093 56.0177897,116.673369 L62.6081998,96.244551 C62.6588861,96.090078 62.8071511,95.9897767 62.9684673,96.00083 L64.9934189,96.00083 C65.154735,95.9897767 65.3030001,96.090078 65.3536864,96.244551 L71.9689425,116.642122 L72,116.760858 C72,116.898342 71.9130389,116.967084 71.7329052,116.967084 L70.1241246,116.967084 C69.9704356,116.98473 69.8236292,116.898148 69.7638571,116.754609 L69.7638571,116.754609 Z M60.0304239,111.099032 C60.0575892,111.128421 60.096162,111.1444 60.1360196,111.142777 L67.8507126,111.142777 C67.8904251,111.143598 67.9286847,111.127749 67.9563082,111.099032 C67.9825112,111.068526 67.9825112,111.023301 67.9563082,110.992795 L64.0803272,98.7567519 C64.0658857,98.7206799 64.0319659,98.6963042 63.9933661,98.6942593 C63.9534308,98.6968146 63.9178977,98.7206473 63.9001935,98.7567519 L60.0117894,111.017792 C60.0039516,111.0463 60.0109618,111.076862 60.0304239,111.099032 L60.0304239,111.099032 Z" id="Shape"></path>
                    <path d="M89.126742,96.0281307 L90.6913443,96.0281307 C90.7754267,96.017863 90.8596506,96.0461045 90.9195682,96.1046575 C90.9794859,96.1632105 91.0083856,96.2455162 90.9978786,96.3276836 L90.9978786,116.697279 C91.0083856,116.779447 90.9794859,116.861752 90.9195682,116.920305 C90.8596506,116.978858 90.7754267,117.0071 90.6913443,116.996832 L89.1586727,116.996832 C89.0075138,116.993811 88.8681604,116.91633 88.7882771,116.790889 L78.3341798,100.165705 C78.3341798,100.103298 78.2830907,100.078335 78.2447739,100.090817 C78.2064571,100.103298 78.1809126,100.134501 78.1809126,100.190668 L78.1809126,116.697279 C78.1941925,116.78003 78.1662011,116.863999 78.1055922,116.923227 C78.0449833,116.982456 77.9590573,117.009809 77.8743783,116.996832 L76.3097761,116.996832 C76.2250971,117.009809 76.1391711,116.982456 76.0785622,116.923227 C76.0179533,116.863999 75.9899619,116.78003 76.0032418,116.697279 L76.0032418,96.3027208 C75.9899619,96.2199704 76.0179533,96.1360014 76.0785622,96.0767729 C76.1391711,96.0175444 76.2250971,95.9901906 76.3097761,96.0031679 L77.8424477,96.0031679 C77.9945276,96.0086698 78.1336402,96.0883613 78.2128433,96.2153512 L88.6669406,112.840536 C88.6669406,112.902943 88.7116435,112.927905 88.7563464,112.915424 C88.8010493,112.902943 88.8202077,112.871739 88.8202077,112.809332 L88.7882771,96.3027208 C88.7809594,96.2173583 88.8167881,96.1338878 88.884233,96.0791711 C88.9516779,96.0244543 89.0422275,96.0053965 89.126742,96.0281307 Z" id="Path"></path>
                    <path d="M115.127364,96.0281307 L116.689454,96.0281307 C116.774343,96.0151533 116.860483,96.0425071 116.921243,96.1017356 C116.982002,96.1609642 117.010063,96.2449332 116.99675,96.3276836 L116.99675,116.697279 C117.010063,116.78003 116.982002,116.863999 116.921243,116.923227 C116.860483,116.982456 116.774343,117.009809 116.689454,116.996832 L115.152972,116.996832 C115.003404,116.992858 114.866067,116.915351 114.788058,116.790889 L104.307972,100.165705 C104.307972,100.103298 104.256756,100.078335 104.218344,100.090817 C104.179932,100.103298 104.154324,100.134501 104.154324,100.190668 L104.186334,116.697279 C104.199647,116.78003 104.171586,116.863999 104.110827,116.923227 C104.050067,116.982456 103.963927,117.009809 103.879038,116.996832 L102.310546,116.996832 C102.225657,117.009809 102.139517,116.982456 102.078757,116.923227 C102.017998,116.863999 101.989937,116.78003 102.00325,116.697279 L102.00325,96.3027208 C101.989937,96.2199704 102.017998,96.1360014 102.078757,96.0767729 C102.139517,96.0175444 102.225657,95.9901906 102.310546,96.0031679 L103.847028,96.0031679 C103.998518,96.011842 104.136578,96.0907339 104.218344,96.2153512 L114.692028,112.840536 C114.692028,112.902943 114.724038,112.927905 114.788058,112.915424 C114.82647,112.915424 114.845676,112.871739 114.845676,112.809332 L114.845676,96.3027208 C114.841972,96.2288473 114.870459,96.1568869 114.92411,96.1045881 C114.97776,96.0522893 115.051581,96.0245205 115.127364,96.0281307 L115.127364,96.0281307 Z" id="Path"></path>
                    <path d="M125.359294,116.184909 C124.327693,115.67989 123.466854,114.89076 122.881121,113.913171 C122.281138,112.889761 121.976888,111.723958 122.001369,110.542205 L122.001369,102.450665 C121.976888,101.268912 122.281138,100.103108 122.881121,99.0796987 C123.466854,98.1021095 124.327693,97.3129795 125.359294,96.8079607 C126.493387,96.2510648 127.747877,95.9744136 129.014601,96.0018601 C130.275701,95.9769204 131.524622,96.249093 132.657516,96.795747 C133.683748,97.2799224 134.544826,98.0480521 135.13569,99.0064169 C135.718402,99.9781201 136.01649,101.090004 135.996855,102.218606 L135.996855,102.597229 C136.009738,102.678204 135.982583,102.760372 135.923784,102.81833 C135.864985,102.876288 135.781625,102.903055 135.699474,102.890356 L134.163006,102.890356 C134.080856,102.903055 133.997496,102.876288 133.938697,102.81833 C133.879898,102.760372 133.852742,102.678204 133.865626,102.597229 L133.865626,102.243033 C133.906499,101.040666 133.424031,99.8784141 132.539803,99.0491646 C130.478276,97.4009684 127.523788,97.4137414 125.477008,99.0796987 C124.574432,99.9456887 124.0879,101.149061 124.138794,102.389597 L124.138794,110.597166 C124.090124,111.84516 124.589002,113.053378 125.507985,113.913171 C126.495836,114.778577 127.78726,115.229917 129.107532,115.171176 C130.372011,115.234214 131.61246,114.81425 132.57078,113.998667 C133.444796,113.190201 133.917631,112.046204 133.865626,110.865867 L133.865626,108.197185 C133.865626,108.117796 133.822258,108.081155 133.741717,108.081155 L129.373936,108.081155 C129.291785,108.093854 129.208425,108.067087 129.149626,108.009129 C129.090827,107.951171 129.063672,107.869003 129.076555,107.788028 L129.076555,106.566663 C129.063672,106.485688 129.090827,106.40352 129.149626,106.345562 C129.208425,106.287604 129.291785,106.260837 129.373936,106.273536 L135.674692,106.273536 C135.756843,106.260837 135.840203,106.287604 135.899002,106.345562 C135.957801,106.40352 135.984957,106.485688 135.972073,106.566663 L135.972073,110.346787 C135.972073,112.439391 135.35253,114.067877 134.113443,115.232245 C132.721888,116.452313 130.899382,117.084027 129.039382,116.99101 C127.764321,117.022447 126.500842,116.74569 125.359294,116.184909 L125.359294,116.184909 Z" id="Path"></path>
                    <path d="M144.336129,116.159142 C143.316817,115.635744 142.466676,114.830302 141.88538,113.837249 C141.282033,112.778969 140.976964,111.57468 141.00311,110.35441 L141.00311,96.2995466 C140.990369,96.2176639 141.017224,96.1345754 141.075373,96.0759679 C141.133521,96.0173604 141.215959,95.9902934 141.2972,96.0031347 L142.792157,96.0031347 C142.873399,95.9902934 142.955836,96.0173604 143.013985,96.0759679 C143.072133,96.1345754 143.098988,96.2176639 143.086247,96.2995466 L143.086247,110.409987 C143.039702,111.693426 143.531155,112.937363 144.440286,113.837249 C146.495496,115.588203 149.504504,115.588203 151.559714,113.837249 C152.468845,112.937363 152.960298,111.693426 152.913753,110.409987 L152.913753,96.2995466 C152.901012,96.2176639 152.927867,96.1345754 152.986015,96.0759679 C153.044164,96.0173604 153.126601,95.9902934 153.207843,96.0031347 L154.7028,96.0031347 C154.784041,95.9902934 154.866479,96.0173604 154.924627,96.0759679 C154.982776,96.1345754 155.009631,96.2176639 154.99689,96.2995466 L154.99689,110.35441 C155.024026,111.572433 154.725642,112.775394 154.133001,113.837249 C153.554686,114.832701 152.703755,115.638891 151.682251,116.159142 C149.357723,117.280286 146.654531,117.280286 144.330003,116.159142 L144.336129,116.159142 Z" id="Path"></path>
                    <path d="M165.426338,116.693857 L165.426338,107.81966 C165.432869,107.767475 165.421726,107.714622 165.39465,107.669356 L159.057038,96.3652451 C159.025856,96.3091137 159.006456,96.2473419 159,96.1836278 C159,96.0646371 159.088727,96.0020105 159.272517,96.0020105 L160.913959,96.0020105 C161.069865,95.9884188 161.217382,96.0738719 161.28154,96.2149411 L166.389654,105.383483 C166.416004,105.405761 166.450112,105.416996 166.484719,105.414797 C166.517267,105.416012 166.54904,105.404799 166.573445,105.383483 L171.713248,96.2149411 C171.785144,96.0809633 171.927404,95.9985557 172.080829,96.0020105 L173.72227,96.0020105 C173.816383,95.9901719 173.909308,96.031252 173.9631,96.1084758 C174.0123,96.1871611 174.0123,96.2865597 173.9631,96.3652451 L167.625489,107.669356 C167.598412,107.714622 167.587269,107.767475 167.593801,107.81966 L167.593801,116.693857 C167.606979,116.776899 167.579201,116.861164 167.519052,116.920601 C167.458904,116.980038 167.373631,117.007488 167.289595,116.994465 L165.743218,116.994465 C165.657232,117.012171 165.567942,116.98682 165.50458,116.926712 C165.441219,116.866604 165.411943,116.779478 165.426338,116.693857 L165.426338,116.693857 Z" id="Path"></path>
                    <path d="M190.685402,97.8656642 L179.294349,97.8656642 C179.260796,97.8615401 179.227165,97.8727182 179.20325,97.8959431 C179.179335,97.919168 179.167825,97.9518286 179.172072,97.9844137 L179.172072,105.40313 C179.167825,105.435715 179.179335,105.468376 179.20325,105.491601 C179.227165,105.514825 179.260796,105.526003 179.294349,105.521879 L187.26165,105.521879 C187.346986,105.508883 187.433578,105.536277 187.494656,105.595594 C187.555735,105.654911 187.583943,105.739005 187.57056,105.821878 L187.57056,107.071872 C187.583943,107.154746 187.555735,107.23884 187.494656,107.298157 C187.433578,107.357473 187.346986,107.384868 187.26165,107.371871 L179.294349,107.371871 C179.210686,107.371871 179.172072,107.415621 179.172072,107.49687 L179.172072,115.028086 C179.167825,115.060671 179.179335,115.093332 179.20325,115.116557 C179.227165,115.139782 179.260796,115.15096 179.294349,115.146836 L190.685402,115.146836 C190.770737,115.133839 190.857329,115.161234 190.918408,115.22055 C190.979487,115.279867 191.007695,115.363961 190.994312,115.446834 L190.994312,116.696829 C191.007695,116.779702 190.979487,116.863796 190.918408,116.923113 C190.857329,116.98243 190.770737,117.009824 190.685402,116.996827 L177.312177,116.996827 C177.226842,117.009824 177.14025,116.98243 177.079171,116.923113 C177.018092,116.863796 176.989884,116.779702 177.003267,116.696829 L177.003267,96.3031713 C176.989884,96.2202978 177.018092,96.1362038 177.079171,96.0768871 C177.14025,96.0175705 177.226842,95.990176 177.312177,96.0031727 L190.685402,96.0031727 C190.770737,95.990176 190.857329,96.0175705 190.918408,96.0768871 C190.979487,96.1362038 191.007695,96.2202978 190.994312,96.3031713 L190.994312,97.5531656 C191.012507,97.6379627 190.986456,97.7260178 190.924688,97.7885033 C190.86292,97.8509888 190.773388,97.8798597 190.685402,97.8656642 Z" id="Path"></path>
                    <path d="M208.12016,96.0031717 L209.689321,96.0031717 C209.774247,95.9901789 209.860423,96.0175652 209.921209,96.0768643 C209.981994,96.1361633 210.010067,96.2202322 209.996749,96.3030811 L209.996749,116.696919 C210.010067,116.779768 209.981994,116.863837 209.921209,116.923136 C209.860423,116.982435 209.774247,117.009821 209.689321,116.996828 L208.12016,116.996828 C207.970193,116.994013 207.832265,116.916112 207.75509,116.790641 L197.270529,100.14567 C197.270529,100.083189 197.219291,100.058196 197.174458,100.070693 C197.129625,100.083189 197.116816,100.114429 197.116816,100.170662 L197.148839,116.696919 C197.159377,116.779184 197.130393,116.861588 197.070301,116.92021 C197.010209,116.978833 196.925739,117.007108 196.841412,116.996828 L195.310679,116.996828 C195.225753,117.009821 195.139577,116.982435 195.078791,116.923136 C195.018006,116.863837 194.989933,116.779768 195.003251,116.696919 L195.003251,96.2780886 C194.998551,96.1993354 195.030417,96.1226976 195.090026,96.0693919 C195.149636,96.0160863 195.230664,95.9917688 195.310679,96.0031717 L196.847816,96.0031717 C196.998032,96.0107243 197.134701,96.0902523 197.212887,96.2156075 L207.697447,112.860578 C207.697447,112.923059 207.729471,112.948052 207.793518,112.935555 C207.831946,112.935555 207.851161,112.891819 207.851161,112.829338 L207.819137,96.3030811 C207.806322,96.2214729 207.833623,96.1387396 207.892832,96.0797496 C207.952041,96.0207595 208.036255,95.9923912 208.12016,96.0031717 L208.12016,96.0031717 Z" id="Path"></path>
                </g>
            </g>
        </g>
    </g>
</svg>