<svg xmlns="http://www.w3.org/2000/svg" viewBox="0 0 335.9 186.95"><defs><style>.cls-1,.cls-2{fill:#231f20;}.cls-2{stroke:#231f20;stroke-miterlimit:10;}</style></defs><title>logo_black100</title><g id="Layer_2" data-name="Layer 2"><g id="LOGO"><g id="BLACK"><g id="Logo_2" data-name="Logo 2"><g id="Logo_Black"><g id="Circle"><path class="cls-1" d="M228.73,63.51c-.28,25.46-16.13,48.64-40.2,57.41a61.09,61.09,0,0,1-73.38-88.61A61.64,61.64,0,0,1,179.56,3.59C208,9.26,228.42,34.68,228.73,63.51a1.25,1.25,0,0,0,2.5,0c-.29-26.37-16.59-50.33-41.42-59.6A63.59,63.59,0,0,0,113,96a64.19,64.19,0,0,0,66.57,30c29.87-5.6,51.34-32.33,51.67-62.44A1.25,1.25,0,0,0,228.73,63.51Z"/></g><path id="Logo_Compound_Path" data-name="Logo_Compound Path" class="cls-2" d="M170.11,62.5,128.05,38.83V90.32h1.48v-43l76.39,43.12V38.83Zm34,24.6L129.75,45.36V41.89L204.12,84Zm.37-4.91-33.3-19,33.3-21.81Z"/></g><path class="cls-1" d="M22.37,153h2.49a.42.42,0,0,1,.48.48v32.64a.42.42,0,0,1-.48.48H22.42a.42.42,0,0,1-.48-.48V159.4a.22.22,0,0,0-.1-.2c-.06,0-.11,0-.14.1l-7.83,12a.69.69,0,0,1-.57.33H12.05a.72.72,0,0,1-.58-.28L3.65,159.44q0-.13-.15-.09a.19.19,0,0,0-.09.19v26.54a.42.42,0,0,1-.48.48H.48a.42.42,0,0,1-.48-.48V153.44A.42.42,0,0,1,.48,153H3a.65.65,0,0,1,.57.29l9,13.68a.22.22,0,0,0,.28,0l8.93-13.63A.71.71,0,0,1,22.37,153Z"/><path class="cls-1" d="M55.58,155.94H37.92a.17.17,0,0,0-.19.19V168a.17.17,0,0,0,.19.19H50.3a.42.42,0,0,1,.48.48v2a.42.42,0,0,1-.48.48H37.92c-.13,0-.19.07-.19.2V183.4a.17.17,0,0,0,.19.19H55.58a.42.42,0,0,1,.48.48v2a.42.42,0,0,1-.48.48H34.8a.42.42,0,0,1-.48-.48V153.44a.42.42,0,0,1,.48-.48H55.58a.42.42,0,0,1,.48.48v2A.42.42,0,0,1,55.58,155.94Z"/><path class="cls-1" d="M67.68,185.63a9.61,9.61,0,0,1-4-3.72,10.7,10.7,0,0,1-1.42-5.52V163.14a10.7,10.7,0,0,1,1.42-5.52,9.61,9.61,0,0,1,4-3.72,12.64,12.64,0,0,1,5.9-1.32,12.79,12.79,0,0,1,5.88,1.3,9.34,9.34,0,0,1,4,3.62,10,10,0,0,1,1.4,5.26v.62a.42.42,0,0,1-.48.48H81.89a.42.42,0,0,1-.48-.48v-.58a6.86,6.86,0,0,0-2.14-5.23,8,8,0,0,0-5.69-2,7.91,7.91,0,0,0-5.71,2.06A7.16,7.16,0,0,0,65.71,163v13.44a7.11,7.11,0,0,0,2.21,5.43A8.19,8.19,0,0,0,73.73,184a7.94,7.94,0,0,0,5.59-1.92,6.64,6.64,0,0,0,2.09-5.13v-4.37a.17.17,0,0,0-.19-.19H74.16a.42.42,0,0,1-.48-.48v-2a.42.42,0,0,1,.48-.48H84.34a.42.42,0,0,1,.48.48v6.19q0,5.14-3,8A11.43,11.43,0,0,1,73.58,187,12.64,12.64,0,0,1,67.68,185.63Z"/><path class="cls-1" d="M112.08,186.18l-1.92-6.05A.19.19,0,0,0,110,180H95.62a.2.2,0,0,0-.2.14l-1.92,6.05a.54.54,0,0,1-.57.38H90.34c-.36,0-.48-.17-.39-.52l10.61-32.69a.57.57,0,0,1,.58-.39h3.26a.57.57,0,0,1,.58.39L115.63,186l.05.19c0,.22-.14.33-.43.33h-2.59A.56.56,0,0,1,112.08,186.18Zm-15.67-9.05a.22.22,0,0,0,.17.07H109a.23.23,0,0,0,.17-.07.13.13,0,0,0,0-.17l-6.24-19.58a.16.16,0,0,0-.14-.1.18.18,0,0,0-.15.1L96.38,177A.14.14,0,0,0,96.41,177.13Z"/><path class="cls-1" d="M142.37,153h2.45a.43.43,0,0,1,.48.48v32.64a.43.43,0,0,1-.48.48h-2.4a.7.7,0,0,1-.58-.33l-16.37-26.64c0-.1-.08-.14-.14-.12s-.1.07-.1.16l0,26.45a.42.42,0,0,1-.48.48h-2.45a.42.42,0,0,1-.48-.48V153.44a.42.42,0,0,1,.48-.48h2.4a.71.71,0,0,1,.58.34l16.37,26.64c0,.1.07.14.14.12s.1-.07.1-.17l-.05-26.45A.42.42,0,0,1,142.37,153Z"/><path class="cls-1" d="M184.42,153h2.44a.42.42,0,0,1,.48.48v32.64a.42.42,0,0,1-.48.48h-2.4a.69.69,0,0,1-.57-.33l-16.37-26.64c0-.1-.08-.14-.14-.12s-.1.07-.1.16l.05,26.45a.42.42,0,0,1-.48.48H164.4a.42.42,0,0,1-.48-.48V153.44a.42.42,0,0,1,.48-.48h2.4a.74.74,0,0,1,.58.34l16.36,26.64q0,.15.15.12c.06,0,.09-.07.09-.17l0-26.45A.42.42,0,0,1,184.42,153Z"/><path class="cls-1" d="M200.69,185.63a9.61,9.61,0,0,1-4-3.72,10.6,10.6,0,0,1-1.42-5.52V163.14a10.6,10.6,0,0,1,1.42-5.52,9.61,9.61,0,0,1,4-3.72,12.61,12.61,0,0,1,5.9-1.32,12.79,12.79,0,0,1,5.88,1.3,9.46,9.46,0,0,1,4,3.62,10,10,0,0,1,1.39,5.26v.62a.42.42,0,0,1-.48.48H214.9a.42.42,0,0,1-.48-.48v-.58a6.9,6.9,0,0,0-2.14-5.23,9,9,0,0,0-11.4.05,7.16,7.16,0,0,0-2.16,5.42v13.44a7.11,7.11,0,0,0,2.21,5.43,8.19,8.19,0,0,0,5.81,2.06,7.94,7.94,0,0,0,5.59-1.92,6.64,6.64,0,0,0,2.09-5.13v-4.37c0-.13-.07-.19-.2-.19h-7.05a.42.42,0,0,1-.48-.48v-2a.42.42,0,0,1,.48-.48h10.17a.42.42,0,0,1,.48.48v6.19q0,5.14-3,8a11.45,11.45,0,0,1-8.19,2.88A12.61,12.61,0,0,1,200.69,185.63Z"/><path class="cls-1" d="M230.88,185.6a9.82,9.82,0,0,1-4-3.76,10.85,10.85,0,0,1-1.44-5.64V153.44a.42.42,0,0,1,.48-.48h2.44a.42.42,0,0,1,.48.48v22.85a7.4,7.4,0,0,0,2.21,5.55,9,9,0,0,0,11.62,0,7.4,7.4,0,0,0,2.21-5.55V153.44a.42.42,0,0,1,.48-.48h2.44a.42.42,0,0,1,.48.48V176.2a11,11,0,0,1-1.41,5.64,9.71,9.71,0,0,1-4,3.76,13.9,13.9,0,0,1-12,0Z"/><path class="cls-1" d="M264.29,186V171.83a.38.38,0,0,0-.05-.24l-10-18.05a.76.76,0,0,1-.09-.29c0-.19.14-.29.43-.29h2.59a.58.58,0,0,1,.58.34l8.06,14.64a.21.21,0,0,0,.15.05.2.2,0,0,0,.14-.05l8.11-14.64a.64.64,0,0,1,.58-.34h2.59a.4.4,0,0,1,.38.17.39.39,0,0,1,0,.41l-10,18.05a.38.38,0,0,0-.05.24V186a.42.42,0,0,1-.48.48h-2.44A.42.42,0,0,1,264.29,186Z"/><path class="cls-1" d="M304.7,155.94H287a.17.17,0,0,0-.19.19V168a.17.17,0,0,0,.19.19h12.38a.42.42,0,0,1,.48.48v2a.42.42,0,0,1-.48.48H287c-.13,0-.19.07-.19.2V183.4a.17.17,0,0,0,.19.19H304.7a.42.42,0,0,1,.48.48v2a.42.42,0,0,1-.48.48H283.92a.42.42,0,0,1-.48-.48V153.44a.42.42,0,0,1,.48-.48H304.7a.42.42,0,0,1,.48.48v2A.42.42,0,0,1,304.7,155.94Z"/><path class="cls-1" d="M333,153h2.45a.42.42,0,0,1,.48.48v32.64a.42.42,0,0,1-.48.48H333a.68.68,0,0,1-.57-.33l-16.37-26.64c0-.1-.08-.14-.15-.12s-.09.07-.09.16l.05,26.45a.43.43,0,0,1-.48.48H313a.42.42,0,0,1-.48-.48V153.44A.42.42,0,0,1,313,153h2.4a.71.71,0,0,1,.57.34l16.37,26.64q0,.15.15.12c.06,0,.09-.07.09-.17l-.05-26.45A.42.42,0,0,1,333,153Z"/></g></g></g></g></svg>